<svg data-v-0dd9719b="" version="1.0" xmlns="http://www.w3.org/2000/svg" xmlns:xlink="http://www.w3.org/1999/xlink" width="100%" height="100%" viewBox="0 0 340.000000 250.000000" preserveAspectRatio="xMidYMid meet" color-interpolation-filters="sRGB" style="margin: auto;"> <rect data-v-0dd9719b="" x="0" y="0" width="100%" height="100%" fill="#fff" fill-opacity="1" class="background"></rect> <rect data-v-0dd9719b="" x="0" y="0" width="100%" height="100%" fill="url(#watermark)" fill-opacity="1" class="watermarklayer"></rect> <g data-v-0dd9719b="" fill="#931a3d" class="icon-text-wrapper icon-svg-group iconsvg" transform="translate(82.08999645709991,74.86096572875977)"><g class="iconsvg-imagesvg" transform="translate(57.910003662109375,0)"><g><rect fill="#931a3d" fill-opacity="0" stroke-width="2" x="0" y="0" width="60" height="69.26806742091895" class="image-rect"></rect> <svg x="0" y="0" width="60" height="69.26806742091895" filtersec="colorsb9771924982" class="image-svg-svg primary" style="overflow: visible;"><svg xmlns="http://www.w3.org/2000/svg" viewBox="15.34000015258789 3 831.6599731445312 960.1300048828125"><path fill="#D7DF32" d="M431.07 167.96l.2-.11V3l-.2.11v164.74z"></path><path fill="#931A3D" d="M431.27 798.28l-.07-.04v.04L241.46 688.76l-83.25-48.04v-.14l-.1.14-142.58 82.27v.11l415.74 240.03L847 723.1l-142.77-82.38z"></path><path fill="#F58B1F" d="M704.23 325.42v315.3L847 723.1V243.03L431.27 3v164.85z"></path><path fill="#EE3E30" d="M15.53 722.99l142.58-82.27.1-.14V325.42l272.86-157.46V3L15.34 243.03V723.1z"></path><path fill="#FFC724" d="M307.39 617.29l-54.31-31.35V380.19L431.2 483.07v205.66l.05.03V483.07l178.12-102.88-178.12-102.81-.13.07-178.06 102.74v205.75z"></path><path fill="#EE3E30" d="M431.25 483.07v205.69l178.12-102.82V380.19z"></path><path fill="#F58B1F" d="M253.08 380.19v205.75l54.31 31.35 123.81 71.47V483.07z"></path></svg></svg> <!----></g></g> <g transform="translate(0,76.26806640625)"><g data-gra="path-name" fill-rule="" class="tp-name iconsvg-namesvg"><g transform="scale(1)"><g><path d="M18.77-10.05L18.77-7.15Q18.77-3.27 16.83-0.8 14.9 1.67 10.96 1.67L10.96 1.67Q8.24 1.67 6.15 0.17 4.06-1.33 2.91-4.06 1.76-6.78 1.76-10.32L1.76-10.32Q1.76-13.87 2.91-16.59 4.06-19.32 6.15-20.83 8.24-22.34 10.96-22.34L10.96-22.34Q13.84-22.34 15.68-20.97 17.53-19.59 18.23-17.35L18.23-17.35 17.14-16.77Q15.8-21.04 10.96-21.04L10.96-21.04Q8.63-21.04 6.86-19.7 5.09-18.35 4.1-15.91 3.12-13.47 3.12-10.32L3.12-10.32Q3.12-7.18 4.1-4.74 5.09-2.3 6.86-0.95 8.63 0.39 10.96 0.39L10.96 0.39Q14.2 0.39 15.84-1.62 17.47-3.63 17.47-7.36L17.47-7.36 17.47-8.78 12.02-8.78 12.02-10.05 18.77-10.05ZM31.73 1.67L31.73 1.67Q29.01 1.67 26.9 0.12 24.8-1.42 23.62-4.16 22.44-6.9 22.44-10.32L22.44-10.32Q22.44-13.75 23.62-16.49 24.8-19.23 26.92-20.79 29.04-22.34 31.73-22.34L31.73-22.34Q34.43-22.34 36.54-20.79 38.66-19.23 39.85-16.49 41.03-13.75 41.03-10.32L41.03-10.32Q41.03-6.9 39.85-4.16 38.66-1.42 36.56 0.12 34.46 1.67 31.73 1.67ZM31.73 0.39L31.73 0.39Q34.06 0.39 35.88-0.95 37.7-2.3 38.69-4.74 39.69-7.18 39.69-10.32L39.69-10.32Q39.69-13.47 38.69-15.91 37.7-18.35 35.88-19.7 34.06-21.04 31.73-21.04L31.73-21.04Q29.4-21.04 27.6-19.7 25.8-18.35 24.8-15.91 23.8-13.47 23.8-10.32L23.8-10.32Q23.8-7.18 24.8-4.74 25.8-2.3 27.6-0.95 29.4 0.39 31.73 0.39ZM46.45 0.06L57.19 0.06 57.19 1.36 45.11 1.36 45.11-22.01 46.45-22.01 46.45 0.06ZM77.78-10.32L77.78-10.32Q77.78-6.81 76.57-4.16 75.36-1.51 73.06-0.08 70.76 1.36 67.58 1.36L67.58 1.36 60.83 1.36 60.83-22.01 67.58-22.01Q70.76-22.01 73.06-20.57 75.36-19.14 76.57-16.49 77.78-13.84 77.78-10.32ZM76.42-10.32L76.42-10.32Q76.42-13.44 75.41-15.79 74.39-18.14 72.39-19.42 70.4-20.71 67.52-20.71L67.52-20.71 62.16-20.71 62.16 0.06 67.52 0.06Q70.37 0.06 72.38-1.24 74.39-2.54 75.41-4.87 76.42-7.21 76.42-10.32ZM81.72-16.44L81.72-16.44Q81.72-19.17 83.52-20.76 85.32-22.34 88.44-22.34L88.44-22.34Q90.8-22.34 92.56-21.22 94.31-20.1 94.98-18.17L94.98-18.17 93.74-17.62Q92.65-21.04 88.44-21.04L88.44-21.04Q85.81-21.04 84.46-19.88 83.11-18.71 83.11-16.47L83.11-16.47Q83.11-15.14 83.63-14.26 84.14-13.38 85.32-12.78 86.5-12.17 88.62-11.63L88.62-11.63Q91.17-10.96 92.66-10.08 94.16-9.2 94.84-7.96 95.53-6.72 95.53-4.9L95.53-4.9Q95.53-2.94 94.63-1.45 93.74 0.03 92.09 0.85 90.44 1.67 88.29 1.67L88.29 1.67Q85.62 1.67 83.7 0.41 81.78-0.85 80.93-3.18L80.93-3.18 82.14-3.75Q82.84-1.73 84.4-0.67 85.96 0.39 88.29 0.39L88.29 0.39Q91.01 0.39 92.6-1.03 94.19-2.45 94.19-4.9L94.19-4.9Q94.19-6.39 93.63-7.37 93.07-8.36 91.8-9.05 90.53-9.75 88.29-10.29L88.29-10.29Q84.78-11.17 83.25-12.61 81.72-14.05 81.72-16.44ZM112.33-22.01L112.33-20.71 105.97-20.71 105.97 1.36 104.61 1.36 104.61-20.71 98.19-20.71 98.19-22.01 112.33-22.01ZM129.92 1.36L122.14-9.14 117.26-9.14 117.26 1.36 115.93 1.36 115.93-22.01 123.9-22.01Q126.74-22.01 128.38-20.26 130.01-18.5 130.01-15.56L130.01-15.56Q130.01-12.66 128.38-10.9 126.74-9.14 123.9-9.14L123.9-9.14 123.77-9.14 131.65 1.36 129.92 1.36ZM117.26-20.71L117.26-10.45 123.9-10.45Q126.23-10.45 127.44-11.81 128.65-13.17 128.65-15.56L128.65-15.56Q128.65-17.95 127.42-19.33 126.2-20.71 123.9-20.71L123.9-20.71 117.26-20.71ZM142.91 1.67L142.91 1.67Q140.19 1.67 138.08 0.12 135.98-1.42 134.8-4.16 133.61-6.9 133.61-10.32L133.61-10.32Q133.61-13.75 134.8-16.49 135.98-19.23 138.1-20.79 140.22-22.34 142.91-22.34L142.91-22.34Q145.6-22.34 147.72-20.79 149.84-19.23 151.02-16.49 152.21-13.75 152.21-10.32L152.21-10.32Q152.21-6.9 151.02-4.16 149.84-1.42 147.74 0.12 145.63 1.67 142.91 1.67ZM142.91 0.39L142.91 0.39Q145.24 0.39 147.06-0.95 148.87-2.3 149.87-4.74 150.87-7.18 150.87-10.32L150.87-10.32Q150.87-13.47 149.87-15.91 148.87-18.35 147.06-19.7 145.24-21.04 142.91-21.04L142.91-21.04Q140.58-21.04 138.78-19.7 136.98-18.35 135.98-15.91 134.98-13.47 134.98-10.32L134.98-10.32Q134.98-7.18 135.98-4.74 136.98-2.3 138.78-0.95 140.58 0.39 142.91 0.39ZM177.58-22.01L177.58 1.36 176.22 1.36 176.22-18.95 167.43 1.36 166.31 1.36 157.56-18.89 157.56 1.36 156.29 1.36 156.29-22.01 157.69-22.01 166.92-0.67 176.12-22.01 177.58-22.01Z" transform="translate(-1.7599999904632568, 22.34000015258789)"></path></g> <!----> <!----> <!----> <!----> <!----> <!----> <!----></g></g> <!----></g></g><defs v-gra="od"></defs></svg>